<?xml version="1.0" encoding="utf-8"?>
<!-- Generator: Adobe Illustrator 19.1.0, SVG Export Plug-In . SVG Version: 6.00 Build 0)  -->
<svg version="1.1" id="Layer_1" xmlns="http://www.w3.org/2000/svg" xmlns:xlink="http://www.w3.org/1999/xlink" x="0px" y="0px"
	 viewBox="0 0 1280 799.5" style="enable-background:new 0 0 1280 799.5;" xml:space="preserve">
<style type="text/css">
	.st0{fill:#EAEAEA;}
	.st1{fill:#08084F;}
	.st2{fill:#B9A791;}
	.st3{fill:#FF4100;}
	.st4{fill:#FFFFFF;}
	.st5{fill:#00006D;}
	.st6{fill:none;stroke:#FFFFFF;stroke-width:7;stroke-miterlimit:10;}
	.st7{fill:#006B2B;}
	.st8{fill:#ED0066;}
	.st9{fill:none;stroke:#FF9D00;stroke-width:9;stroke-miterlimit:10;}
	.st10{opacity:0.65;}
	.st11{fill:none;stroke:#FFFFFF;stroke-width:3.6182;stroke-miterlimit:10;}
	.st12{fill:none;stroke:#688200;stroke-width:3.6182;stroke-miterlimit:10;}
	.st13{fill:#FF9D00;}
</style>
<g>
	<rect y="0" class="st0" width="1280" height="800"/>
	<circle class="st7" cx="249.7" cy="38.6" r="6.2"/>
	<circle class="st7" cx="249.7" cy="75.1" r="6.2"/>
	<circle class="st7" cx="249.7" cy="97.8" r="6.2"/>
	<circle class="st7" cx="249.7" cy="117.5" r="6.2"/>
	<circle class="st7" cx="784.9" cy="385.3" r="6.2"/>
	<circle class="st7" cx="745.4" cy="385.3" r="6.2"/>
	<circle class="st7" cx="708.9" cy="385.3" r="6.2"/>
	<circle class="st7" cx="686.2" cy="385.3" r="6.2"/>
	<circle class="st7" cx="663.5" cy="385.3" r="6.2"/>
	<g>
		<circle class="st7" cx="282.9" cy="599.3" r="6.2"/>
		<circle class="st7" cx="243.4" cy="599.3" r="6.2"/>
		<circle class="st7" cx="206.9" cy="599.3" r="6.2"/>
		<circle class="st7" cx="184.2" cy="599.3" r="6.2"/>
		<circle class="st7" cx="166.5" cy="599.3" r="6.2"/>
	</g>
	<g>
		<polygon class="st13" points="666,703 659.1,691.3 652.2,679.6 666,679.6 679.8,679.6 672.9,691.3 		"/>
		<polygon class="st13" points="666,746 659.1,734.3 652.2,722.6 666,722.6 679.8,722.6 672.9,734.3 		"/>
		<polygon class="st13" points="666,789 659.1,777.3 652.2,765.6 666,765.6 679.8,765.6 672.9,777.3 		"/>
	</g>
	<polygon class="st13" points="614,638 607.1,626.3 600.2,614.6 614,614.6 627.8,614.6 620.9,626.3 	"/>
	<polygon class="st13" points="614,596 607.1,584.3 600.2,572.6 614,572.6 627.8,572.6 620.9,584.3 	"/>
	<polygon class="st13" points="614,681 607.1,669.3 600.2,657.6 614,657.6 627.8,657.6 620.9,669.3 	"/>
	<polygon class="st13" points="614,724 607.1,712.3 600.2,700.6 614,700.6 627.8,700.6 620.9,712.3 	"/>
</g>
</svg>
